<svg width="164" height="144" viewBox="0 0 164 144" fill="none" xmlns="http://www.w3.org/2000/svg">
<g filter="url(#filter0_d_295_23)">
<mask id="path-1-outside-1_295_23" maskUnits="userSpaceOnUse" x="9.5" y="30" width="61" height="84" fill="black">
<rect fill="white" x="9.5" y="30" width="61" height="84"/>
<path d="M41.692 89.872H62.236L59.356 106H17.5L29.5 38.032H50.812L41.692 89.872Z"/>
</mask>
<path d="M41.692 89.872H62.236L59.356 106H17.5L29.5 38.032H50.812L41.692 89.872Z" fill="black"/>
<path d="M41.692 89.872L33.813 88.4859C33.4034 90.8143 34.0446 93.2047 35.5646 95.0155C37.0847 96.8263 39.3278 97.872 41.692 97.872V89.872ZM62.236 89.872L70.1114 91.2783C70.5277 88.9474 69.89 86.5519 68.3699 84.7364C66.8499 82.9209 64.6038 81.872 62.236 81.872V89.872ZM59.356 106V114C63.2318 114 66.5501 111.222 67.2314 107.406L59.356 106ZM17.5 106L9.62184 104.609C9.21064 106.938 9.85105 109.33 11.3711 111.142C12.8911 112.954 15.1349 114 17.5 114V106ZM29.5 38.032V30.032C25.6183 30.032 22.2967 32.8185 21.6218 36.6411L29.5 38.032ZM50.812 38.032L58.691 39.4181C59.1006 37.0897 58.4594 34.6993 56.9394 32.8885C55.4193 31.0777 53.1762 30.032 50.812 30.032V38.032ZM41.692 97.872H62.236V81.872H41.692V97.872ZM54.3606 88.4657L51.4806 104.594L67.2314 107.406L70.1114 91.2783L54.3606 88.4657ZM59.356 98H17.5V114H59.356V98ZM25.3782 107.391L37.3782 39.4229L21.6218 36.6411L9.62184 104.609L25.3782 107.391ZM29.5 46.032H50.812V30.032H29.5V46.032ZM42.933 36.6459L33.813 88.4859L49.571 91.2581L58.691 39.4181L42.933 36.6459Z" fill="white" mask="url(#path-1-outside-1_295_23)"/>
</g>
<g filter="url(#filter1_d_295_23)">
<mask id="path-3-outside-2_295_23" maskUnits="userSpaceOnUse" x="58.5" y="30" width="50" height="84" fill="black">
<rect fill="white" x="58.5" y="30" width="50" height="84"/>
<path d="M99.812 38.032L87.812 106H66.5L78.5 38.032H99.812Z"/>
</mask>
<path d="M99.812 38.032L87.812 106H66.5L78.5 38.032H99.812Z" fill="black"/>
<path d="M99.812 38.032L107.69 39.4229C108.101 37.0939 107.461 34.7023 105.941 32.8904C104.421 31.0785 102.177 30.032 99.812 30.032V38.032ZM87.812 106V114C91.6937 114 95.0153 111.213 95.6902 107.391L87.812 106ZM66.5 106L58.6218 104.609C58.2106 106.938 58.8511 109.33 60.3711 111.142C61.8911 112.954 64.1349 114 66.5 114V106ZM78.5 38.032V30.032C74.6183 30.032 71.2967 32.8185 70.6218 36.6411L78.5 38.032ZM91.9338 36.6411L79.9338 104.609L95.6902 107.391L107.69 39.4229L91.9338 36.6411ZM87.812 98H66.5V114H87.812V98ZM74.3782 107.391L86.3782 39.4229L70.6218 36.6411L58.6218 104.609L74.3782 107.391ZM78.5 46.032H99.812V30.032H78.5V46.032Z" fill="white" mask="url(#path-3-outside-2_295_23)"/>
</g>
<g filter="url(#filter2_d_295_23)">
<mask id="path-5-outside-3_295_23" maskUnits="userSpaceOnUse" x="89.5" y="30" width="61" height="84" fill="black">
<rect fill="white" x="89.5" y="30" width="61" height="84"/>
<path d="M121.692 89.872H142.236L139.356 106H97.5L109.5 38.032H130.812L121.692 89.872Z"/>
</mask>
<path d="M121.692 89.872H142.236L139.356 106H97.5L109.5 38.032H130.812L121.692 89.872Z" fill="black"/>
<path d="M121.692 89.872L113.813 88.4859C113.403 90.8143 114.045 93.2047 115.565 95.0155C117.085 96.8263 119.328 97.872 121.692 97.872V89.872ZM142.236 89.872L150.111 91.2783C150.528 88.9474 149.89 86.5519 148.37 84.7364C146.85 82.9209 144.604 81.872 142.236 81.872V89.872ZM139.356 106V114C143.232 114 146.55 111.222 147.231 107.406L139.356 106ZM97.5 106L89.6218 104.609C89.2106 106.938 89.8511 109.33 91.3711 111.142C92.8911 112.954 95.1349 114 97.5 114V106ZM109.5 38.032V30.032C105.618 30.032 102.297 32.8185 101.622 36.6411L109.5 38.032ZM130.812 38.032L138.691 39.4181C139.101 37.0897 138.459 34.6993 136.939 32.8885C135.419 31.0777 133.176 30.032 130.812 30.032V38.032ZM121.692 97.872H142.236V81.872H121.692V97.872ZM134.361 88.4657L131.481 104.594L147.231 107.406L150.111 91.2783L134.361 88.4657ZM139.356 98H97.5V114H139.356V98ZM105.378 107.391L117.378 39.4229L101.622 36.6411L89.6218 104.609L105.378 107.391ZM109.5 46.032H130.812V30.032H109.5V46.032ZM122.933 36.6459L113.813 88.4859L129.571 91.2581L138.691 39.4181L122.933 36.6459Z" fill="white" mask="url(#path-5-outside-3_295_23)"/>
</g>
<path d="M29.5 38.003C29.5 38.003 36.5 37.5041 39 38.003C41.5 38.5018 36 82.5059 31 85.003C26 87.5 21 85.003 21 85.003L29.5 38.003Z" fill="white" stroke="white"/>
<path d="M109.5 37.2217C109.5 37.2217 116.5 36.7229 119 37.2217C121.5 37.7205 116 81.7247 111 84.2217C106 86.7188 101 84.2217 101 84.2217L109.5 37.2217Z" fill="white" stroke="white"/>
<g filter="url(#filter3_f_295_23)">
<path d="M39 74.9024C36.594 74.2971 34.3566 73.0075 32.5362 71.0193C30.7252 69.0413 29.5471 66.6125 28.9894 64C28.4329 66.6182 27.2538 69.0525 25.4394 71.0342C23.6252 73.0157 21.3967 74.3033 19 74.9112C21.3967 75.519 23.6252 76.8067 25.4394 78.7881C27.2519 80.7678 28.4304 83.1991 28.9876 85.814C29.5445 83.1981 30.7232 80.7658 32.5364 78.7855C34.3567 76.7974 36.5941 75.5077 39 74.9024Z" fill="black"/>
<path d="M32.1674 71.3569C33.6621 72.9894 35.4304 74.1696 37.3433 74.9024C35.4305 75.6352 33.6622 76.8155 32.1676 78.4479C30.7142 80.0352 29.6572 81.8997 28.9874 83.9101C28.3176 81.9007 27.2609 80.0372 25.8081 78.4505C24.3177 76.8227 22.5551 75.6445 20.6484 74.9112C22.5551 74.1779 24.3177 72.9997 25.8081 71.3719C27.2629 69.783 28.3206 67.9164 28.9903 65.9038C29.6602 67.9107 30.7162 69.7719 32.1674 71.3569Z" stroke="white"/>
<path d="M32.1674 71.3569C33.6621 72.9894 35.4304 74.1696 37.3433 74.9024C35.4305 75.6352 33.6622 76.8155 32.1676 78.4479C30.7142 80.0352 29.6572 81.8997 28.9874 83.9101C28.3176 81.9007 27.2609 80.0372 25.8081 78.4505C24.3177 76.8227 22.5551 75.6445 20.6484 74.9112C22.5551 74.1779 24.3177 72.9997 25.8081 71.3719C27.2629 69.783 28.3206 67.9164 28.9903 65.9038C29.6602 67.9107 30.7162 69.7719 32.1674 71.3569Z" stroke="black"/>
</g>
<path d="M31.4602 71.9531C32.605 73.2034 33.9491 74.1254 35.4034 74.722C33.9492 75.3185 32.6051 76.2405 31.4603 77.4908C30.3539 78.6992 29.5327 80.106 28.9899 81.622C28.4472 80.1068 27.6262 78.7007 26.5203 77.4929C25.3787 76.246 24.0387 75.3256 22.5891 74.729C24.0387 74.1323 25.3787 73.2119 26.5203 71.965C27.6278 70.7554 28.4496 69.3469 28.9924 67.8291C29.5352 69.3423 30.3555 70.7466 31.4602 71.9531Z" fill="black"/>
<path d="M31.4602 71.9531C32.605 73.2034 33.9491 74.1254 35.4034 74.722C33.9492 75.3185 32.6051 76.2405 31.4603 77.4908C30.3539 78.6992 29.5327 80.106 28.9899 81.622C28.4472 80.1068 27.6262 78.7007 26.5203 77.4929C25.3787 76.246 24.0387 75.3256 22.5891 74.729C24.0387 74.1323 25.3787 73.2119 26.5203 71.965C27.6278 70.7554 28.4496 69.3469 28.9924 67.8291C29.5352 69.3423 30.3555 70.7466 31.4602 71.9531Z" stroke="white"/>
<path d="M31.4602 71.9531C32.605 73.2034 33.9491 74.1254 35.4034 74.722C33.9492 75.3185 32.6051 76.2405 31.4603 77.4908C30.3539 78.6992 29.5327 80.106 28.9899 81.622C28.4472 80.1068 27.6262 78.7007 26.5203 77.4929C25.3787 76.246 24.0387 75.3256 22.5891 74.729C24.0387 74.1323 25.3787 73.2119 26.5203 71.965C27.6278 70.7554 28.4496 69.3469 28.9924 67.8291C29.5352 69.3423 30.3555 70.7466 31.4602 71.9531Z" stroke="black"/>
<g filter="url(#filter4_f_295_23)">
<path d="M119 74.9024C116.594 74.2971 114.357 73.0075 112.536 71.0193C110.725 69.0413 109.547 66.6125 108.989 64C108.433 66.6182 107.254 69.0525 105.439 71.0342C103.625 73.0157 101.397 74.3033 99 74.9112C101.397 75.519 103.625 76.8067 105.439 78.7881C107.252 80.7678 108.43 83.1991 108.988 85.814C109.545 83.1981 110.723 80.7658 112.536 78.7855C114.357 76.7974 116.594 75.5077 119 74.9024Z" fill="black"/>
<path d="M112.167 71.3569C113.662 72.9894 115.43 74.1696 117.343 74.9024C115.43 75.6352 113.662 76.8155 112.168 78.4479C110.714 80.0352 109.657 81.8997 108.987 83.9101C108.318 81.9007 107.261 80.0372 105.808 78.4505C104.318 76.8227 102.555 75.6445 100.648 74.9112C102.555 74.1779 104.318 72.9997 105.808 71.3719C107.263 69.783 108.321 67.9164 108.99 65.9038C109.66 67.9107 110.716 69.7719 112.167 71.3569Z" stroke="white"/>
<path d="M112.167 71.3569C113.662 72.9894 115.43 74.1696 117.343 74.9024C115.43 75.6352 113.662 76.8155 112.168 78.4479C110.714 80.0352 109.657 81.8997 108.987 83.9101C108.318 81.9007 107.261 80.0372 105.808 78.4505C104.318 76.8227 102.555 75.6445 100.648 74.9112C102.555 74.1779 104.318 72.9997 105.808 71.3719C107.263 69.783 108.321 67.9164 108.99 65.9038C109.66 67.9107 110.716 69.7719 112.167 71.3569Z" stroke="black"/>
</g>
<path d="M111.46 71.9531C112.605 73.2034 113.949 74.1254 115.403 74.722C113.949 75.3185 112.605 76.2405 111.46 77.4908C110.354 78.6992 109.533 80.106 108.99 81.622C108.447 80.1068 107.626 78.7007 106.52 77.4929C105.379 76.246 104.039 75.3256 102.589 74.729C104.039 74.1323 105.379 73.2119 106.52 71.965C107.628 70.7554 108.45 69.3469 108.992 67.8291C109.535 69.3423 110.356 70.7466 111.46 71.9531Z" fill="black"/>
<path d="M111.46 71.9531C112.605 73.2034 113.949 74.1254 115.403 74.722C113.949 75.3185 112.605 76.2405 111.46 77.4908C110.354 78.6992 109.533 80.106 108.99 81.622C108.447 80.1068 107.626 78.7007 106.52 77.4929C105.379 76.246 104.039 75.3256 102.589 74.729C104.039 74.1323 105.379 73.2119 106.52 71.965C107.628 70.7554 108.45 69.3469 108.992 67.8291C109.535 69.3423 110.356 70.7466 111.46 71.9531Z" stroke="white"/>
<path d="M111.46 71.9531C112.605 73.2034 113.949 74.1254 115.403 74.722C113.949 75.3185 112.605 76.2405 111.46 77.4908C110.354 78.6992 109.533 80.106 108.99 81.622C108.447 80.1068 107.626 78.7007 106.52 77.4929C105.379 76.246 104.039 75.3256 102.589 74.729C104.039 74.1323 105.379 73.2119 106.52 71.965C107.628 70.7554 108.45 69.3469 108.992 67.8291C109.535 69.3423 110.356 70.7466 111.46 71.9531Z" stroke="black"/>
<defs>
<filter id="filter0_d_295_23" x="13.5" y="38.032" width="52.736" height="75.968" filterUnits="userSpaceOnUse" color-interpolation-filters="sRGB">
<feFlood flood-opacity="0" result="BackgroundImageFix"/>
<feColorMatrix in="SourceAlpha" type="matrix" values="0 0 0 0 0 0 0 0 0 0 0 0 0 0 0 0 0 0 127 0" result="hardAlpha"/>
<feOffset dy="4"/>
<feGaussianBlur stdDeviation="2"/>
<feComposite in2="hardAlpha" operator="out"/>
<feColorMatrix type="matrix" values="0 0 0 0 0 0 0 0 0 0 0 0 0 0 0 0 0 0 0.25 0"/>
<feBlend mode="normal" in2="BackgroundImageFix" result="effect1_dropShadow_295_23"/>
<feBlend mode="normal" in="SourceGraphic" in2="effect1_dropShadow_295_23" result="shape"/>
</filter>
<filter id="filter1_d_295_23" x="62.5" y="38.032" width="41.312" height="75.968" filterUnits="userSpaceOnUse" color-interpolation-filters="sRGB">
<feFlood flood-opacity="0" result="BackgroundImageFix"/>
<feColorMatrix in="SourceAlpha" type="matrix" values="0 0 0 0 0 0 0 0 0 0 0 0 0 0 0 0 0 0 127 0" result="hardAlpha"/>
<feOffset dy="4"/>
<feGaussianBlur stdDeviation="2"/>
<feComposite in2="hardAlpha" operator="out"/>
<feColorMatrix type="matrix" values="0 0 0 0 0 0 0 0 0 0 0 0 0 0 0 0 0 0 0.25 0"/>
<feBlend mode="normal" in2="BackgroundImageFix" result="effect1_dropShadow_295_23"/>
<feBlend mode="normal" in="SourceGraphic" in2="effect1_dropShadow_295_23" result="shape"/>
</filter>
<filter id="filter2_d_295_23" x="93.5" y="38.032" width="52.736" height="75.968" filterUnits="userSpaceOnUse" color-interpolation-filters="sRGB">
<feFlood flood-opacity="0" result="BackgroundImageFix"/>
<feColorMatrix in="SourceAlpha" type="matrix" values="0 0 0 0 0 0 0 0 0 0 0 0 0 0 0 0 0 0 127 0" result="hardAlpha"/>
<feOffset dy="4"/>
<feGaussianBlur stdDeviation="2"/>
<feComposite in2="hardAlpha" operator="out"/>
<feColorMatrix type="matrix" values="0 0 0 0 0 0 0 0 0 0 0 0 0 0 0 0 0 0 0.25 0"/>
<feBlend mode="normal" in2="BackgroundImageFix" result="effect1_dropShadow_295_23"/>
<feBlend mode="normal" in="SourceGraphic" in2="effect1_dropShadow_295_23" result="shape"/>
</filter>
<filter id="filter3_f_295_23" x="17" y="62" width="24" height="25.814" filterUnits="userSpaceOnUse" color-interpolation-filters="sRGB">
<feFlood flood-opacity="0" result="BackgroundImageFix"/>
<feBlend mode="normal" in="SourceGraphic" in2="BackgroundImageFix" result="shape"/>
<feGaussianBlur stdDeviation="1" result="effect1_foregroundBlur_295_23"/>
</filter>
<filter id="filter4_f_295_23" x="97" y="62" width="24" height="25.814" filterUnits="userSpaceOnUse" color-interpolation-filters="sRGB">
<feFlood flood-opacity="0" result="BackgroundImageFix"/>
<feBlend mode="normal" in="SourceGraphic" in2="BackgroundImageFix" result="shape"/>
<feGaussianBlur stdDeviation="1" result="effect1_foregroundBlur_295_23"/>
</filter>
</defs>
</svg>
